<?xml version="1.0" encoding="utf-8" standalone="no"?>
<!DOCTYPE svg PUBLIC "-//W3C//DTD SVG 1.1//EN"
  "http://www.w3.org/Graphics/SVG/1.1/DTD/svg11.dtd">
<!-- Created with matplotlib (http://matplotlib.org/) -->
<svg height="312.077344pt" version="1.1" viewBox="0 0 404.74375 312.077344" width="404.74375pt" xmlns="http://www.w3.org/2000/svg" xmlns:xlink="http://www.w3.org/1999/xlink">
 <defs>
  <style type="text/css">
*{stroke-linecap:butt;stroke-linejoin:round;}
  </style>
 </defs>
 <g id="figure_1">
  <g id="patch_1">
   <path d="M 0 312.077344 
L 404.74375 312.077344 
L 404.74375 0 
L 0 0 
z
" style="fill:#ffffff;"/>
  </g>
  <g id="axes_1">
   <g id="patch_2">
    <path d="M 66.053125 288.199219 
L 345.053125 288.199219 
L 345.053125 10.999219 
L 66.053125 10.999219 
z
" style="fill:#ffffff;"/>
   </g>
   <g id="PolyCollection_1">
    <path clip-path="url(#p451fcd27f1)" d="M -47.164266 288.199219 
L -47.164266 288.197239 
L -47.164266 288.199219 
L -47.164266 288.199219 
z
" style="fill:#0000ff;fill-opacity:0.3;stroke:#0000ff;stroke-opacity:0.3;"/>
    <path clip-path="url(#p451fcd27f1)" d="M -2.686005 288.199219 
L -2.686005 288.074083 
L 1.357473 288.188923 
L 5.400951 288.198823 
L 9.444429 288.185359 
L 13.487908 287.995279 
L 17.531386 288.184963 
L 21.574864 288.184171 
L 25.618342 288.191695 
L 29.661821 288.190111 
L 33.705299 288.192487 
L 37.748777 288.194071 
L 41.792255 288.190903 
L 45.835734 288.192487 
L 49.879212 288.186151 
L 53.92269 288.189319 
L 57.966168 288.124375 
L 62.009647 288.131899 
L 66.053125 288.137839 
L 70.096603 288.002407 
L 74.140082 288.038443 
L 78.18356 288.007555 
L 82.227038 288.022207 
L 86.270516 287.884399 
L 90.313995 287.860243 
L 94.357473 287.662639 
L 98.400951 287.647195 
L 102.444429 287.461075 
L 106.487908 287.675707 
L 110.531386 287.573539 
L 114.574864 287.641651 
L 118.618342 287.373163 
L 122.661821 287.306635 
L 126.705299 286.920535 
L 130.748777 286.946275 
L 134.792255 286.613239 
L 138.835734 286.807279 
L 142.879212 286.198627 
L 146.92269 286.098043 
L 150.966168 285.750751 
L 155.009647 286.048939 
L 159.053125 285.814507 
L 163.096603 285.823615 
L 167.140082 285.183679 
L 171.18356 285.060127 
L 175.227038 284.744119 
L 179.270516 284.542159 
L 183.313995 283.959247 
L 187.357473 284.302183 
L 191.400951 283.690363 
L 195.444429 283.100323 
L 199.487908 283.277335 
L 203.531386 282.984295 
L 207.574864 282.303571 
L 211.618342 283.232587 
L 215.661821 283.164079 
L 219.705299 282.932815 
L 223.748777 282.105571 
L 227.792255 282.665911 
L 231.835734 281.324263 
L 235.879212 281.270803 
L 239.92269 281.348815 
L 243.966168 280.562359 
L 248.009647 280.066963 
L 252.053125 279.471379 
L 256.096603 279.045283 
L 260.140082 279.417919 
L 264.18356 279.088843 
L 268.227038 274.343575 
L 272.270516 274.725715 
L 276.313995 274.461583 
L 280.357473 274.274671 
L 284.400951 273.334963 
L 288.444429 270.856399 
L 292.487908 270.722551 
L 296.531386 266.889667 
L 300.574864 265.769779 
L 304.618342 261.551191 
L 308.661821 261.804631 
L 312.705299 259.644847 
L 316.748777 259.432195 
L 320.792255 255.342307 
L 324.835734 252.321223 
L 328.879212 250.794247 
L 332.92269 246.488143 
L 336.966168 239.613979 
L 341.009647 238.062847 
L 345.053125 238.186795 
L 345.053125 288.199219 
L 345.053125 288.199219 
L 341.009647 288.199219 
L 336.966168 288.199219 
L 332.92269 288.199219 
L 328.879212 288.199219 
L 324.835734 288.199219 
L 320.792255 288.199219 
L 316.748777 288.199219 
L 312.705299 288.199219 
L 308.661821 288.199219 
L 304.618342 288.199219 
L 300.574864 288.199219 
L 296.531386 288.199219 
L 292.487908 288.199219 
L 288.444429 288.199219 
L 284.400951 288.199219 
L 280.357473 288.199219 
L 276.313995 288.199219 
L 272.270516 288.199219 
L 268.227038 288.199219 
L 264.18356 288.199219 
L 260.140082 288.199219 
L 256.096603 288.199219 
L 252.053125 288.199219 
L 248.009647 288.199219 
L 243.966168 288.199219 
L 239.92269 288.199219 
L 235.879212 288.199219 
L 231.835734 288.199219 
L 227.792255 288.199219 
L 223.748777 288.199219 
L 219.705299 288.199219 
L 215.661821 288.199219 
L 211.618342 288.199219 
L 207.574864 288.199219 
L 203.531386 288.199219 
L 199.487908 288.199219 
L 195.444429 288.199219 
L 191.400951 288.199219 
L 187.357473 288.199219 
L 183.313995 288.199219 
L 179.270516 288.199219 
L 175.227038 288.199219 
L 171.18356 288.199219 
L 167.140082 288.199219 
L 163.096603 288.199219 
L 159.053125 288.199219 
L 155.009647 288.199219 
L 150.966168 288.199219 
L 146.92269 288.199219 
L 142.879212 288.199219 
L 138.835734 288.199219 
L 134.792255 288.199219 
L 130.748777 288.199219 
L 126.705299 288.199219 
L 122.661821 288.199219 
L 118.618342 288.199219 
L 114.574864 288.199219 
L 110.531386 288.199219 
L 106.487908 288.199219 
L 102.444429 288.199219 
L 98.400951 288.199219 
L 94.357473 288.199219 
L 90.313995 288.199219 
L 86.270516 288.199219 
L 82.227038 288.199219 
L 78.18356 288.199219 
L 74.140082 288.199219 
L 70.096603 288.199219 
L 66.053125 288.199219 
L 62.009647 288.199219 
L 57.966168 288.199219 
L 53.92269 288.199219 
L 49.879212 288.199219 
L 45.835734 288.199219 
L 41.792255 288.199219 
L 37.748777 288.199219 
L 33.705299 288.199219 
L 29.661821 288.199219 
L 25.618342 288.199219 
L 21.574864 288.199219 
L 17.531386 288.199219 
L 13.487908 288.199219 
L 9.444429 288.199219 
L 5.400951 288.199219 
L 1.357473 288.199219 
L -2.686005 288.199219 
z
" style="fill:#0000ff;fill-opacity:0.3;stroke:#0000ff;stroke-opacity:0.3;"/>
   </g>
   <g id="PolyCollection_2">
    <defs>
     <path d="M -2.686005 -26.999397 
L -2.686005 -24.025041 
L 1.357473 -23.913369 
L 5.400951 -23.901489 
L 9.444429 -23.910597 
L 13.487908 -24.100281 
L 17.531386 -23.918517 
L 21.574864 -23.912973 
L 25.618342 -23.905449 
L 29.661821 -23.905845 
L 33.705299 -23.902677 
L 37.748777 -23.902677 
L 41.792255 -23.904261 
L 45.835734 -23.893965 
L 49.879212 -23.907429 
L 53.92269 -23.898321 
L 57.966168 -23.965245 
L 62.009647 -23.951781 
L 66.053125 -23.958513 
L 70.096603 -24.088005 
L 74.140082 -24.051969 
L 78.18356 -24.086817 
L 82.227038 -24.072957 
L 86.270516 -24.217101 
L 90.313995 -24.242841 
L 94.357473 -24.438465 
L 98.400951 -24.459453 
L 102.444429 -24.643593 
L 106.487908 -24.424209 
L 110.531386 -24.540633 
L 114.574864 -24.464601 
L 118.618342 -24.732297 
L 122.661821 -24.798033 
L 126.705299 -25.185321 
L 130.748777 -25.151661 
L 134.792255 -25.487469 
L 138.835734 -25.293033 
L 142.879212 -25.916733 
L 146.92269 -26.028405 
L 150.966168 -26.367381 
L 155.009647 -26.067213 
L 159.053125 -26.309565 
L 163.096603 -26.313921 
L 167.140082 -26.946729 
L 171.18356 -27.079389 
L 175.227038 -27.414801 
L 179.270516 -27.617553 
L 183.313995 -28.250757 
L 187.357473 -27.948609 
L 191.400951 -28.568349 
L 195.444429 -29.208285 
L 199.487908 -28.987713 
L 203.531386 -29.273625 
L 207.574864 -29.953161 
L 211.618342 -28.999197 
L 215.661821 -29.070477 
L 219.705299 -29.345697 
L 223.748777 -30.169773 
L 227.792255 -29.642697 
L 231.835734 -30.984345 
L 235.879212 -31.059981 
L 239.92269 -30.980781 
L 243.966168 -31.800501 
L 248.009647 -32.308173 
L 252.053125 -32.925537 
L 256.096603 -33.388065 
L 260.140082 -32.978601 
L 264.18356 -33.631605 
L 268.227038 -38.487357 
L 272.270516 -38.267577 
L 276.313995 -39.118581 
L 280.357473 -39.171645 
L 284.400951 -40.209561 
L 288.444429 -42.891669 
L 292.487908 -42.820389 
L 296.531386 -46.930473 
L 300.574864 -48.248361 
L 304.618342 -51.944625 
L 308.661821 -51.737121 
L 312.705299 -54.117873 
L 316.748777 -54.601389 
L 320.792255 -58.675833 
L 324.835734 -62.008965 
L 328.879212 -64.476441 
L 332.92269 -70.259625 
L 336.966168 -79.040529 
L 341.009647 -82.602549 
L 345.053125 -83.465829 
L 345.053125 -282.275649 
L 345.053125 -282.275649 
L 341.009647 -295.945173 
L 336.966168 -291.658077 
L 332.92269 -268.542765 
L 328.879212 -253.595349 
L 324.835734 -247.695741 
L 320.792255 -248.977593 
L 316.748777 -234.655461 
L 312.705299 -223.891785 
L 308.661821 -209.490057 
L 304.618342 -197.993385 
L 300.574864 -182.584629 
L 296.531386 -171.036873 
L 292.487908 -155.233701 
L 288.444429 -145.552689 
L 284.400951 -128.966229 
L 280.357473 -125.606565 
L 276.313995 -113.588361 
L 272.270516 -101.444229 
L 268.227038 -95.400081 
L 264.18356 -85.634721 
L 260.140082 -84.485925 
L 256.096603 -82.399401 
L 252.053125 -81.858069 
L 248.009647 -73.814121 
L 243.966168 -71.655129 
L 239.92269 -68.773437 
L 235.879212 -66.870261 
L 231.835734 -65.212209 
L 227.792255 -63.762057 
L 223.748777 -61.824825 
L 219.705299 -59.587821 
L 215.661821 -57.727809 
L 211.618342 -56.501001 
L 207.574864 -56.396061 
L 203.531386 -55.253205 
L 199.487908 -53.713161 
L 195.444429 -52.981749 
L 191.400951 -50.595057 
L 187.357473 -49.075209 
L 183.313995 -48.636441 
L 179.270516 -46.622781 
L 175.227038 -45.086697 
L 171.18356 -43.880877 
L 167.140082 -43.053633 
L 163.096603 -42.006213 
L 159.053125 -40.631697 
L 155.009647 -38.812077 
L 150.966168 -38.388357 
L 146.92269 -37.297377 
L 142.879212 -36.576657 
L 138.835734 -35.127297 
L 134.792255 -34.523001 
L 130.748777 -33.414201 
L 126.705299 -33.097797 
L 122.661821 -32.185413 
L 118.618342 -31.445289 
L 114.574864 -30.776049 
L 110.531386 -30.499245 
L 106.487908 -30.124629 
L 102.444429 -30.005037 
L 98.400951 -29.353221 
L 94.357473 -28.982565 
L 90.313995 -28.791297 
L 86.270516 -28.586961 
L 82.227038 -28.201257 
L 78.18356 -28.052361 
L 74.140082 -27.869409 
L 70.096603 -27.952965 
L 66.053125 -27.638541 
L 62.009647 -27.345501 
L 57.966168 -27.123345 
L 53.92269 -26.777637 
L 49.879212 -26.702001 
L 45.835734 -26.248581 
L 41.792255 -26.247393 
L 37.748777 -26.473905 
L 33.705299 -26.577657 
L 29.661821 -26.606565 
L 25.618342 -26.099685 
L 21.574864 -27.018405 
L 17.531386 -27.176409 
L 13.487908 -27.313821 
L 9.444429 -27.141561 
L 5.400951 -26.878221 
L 1.357473 -26.889705 
L -2.686005 -26.999397 
z
" id="mc138b9bf18" style="stroke:#bfbf00;stroke-opacity:0.5;"/>
    </defs>
    <g clip-path="url(#p451fcd27f1)">
     <use style="fill:#bfbf00;fill-opacity:0.5;stroke:#bfbf00;stroke-opacity:0.5;" x="0" xlink:href="#mc138b9bf18" y="312.077344"/>
    </g>
   </g>
   <g id="PolyCollection_3">
    <defs>
     <path d="M -2.686005 -24.025041 
L -2.686005 -24.003261 
L 1.357473 -23.888421 
L 5.400951 -23.878521 
L 9.444429 -23.891985 
L 13.487908 -24.082065 
L 17.531386 -23.892381 
L 21.574864 -23.893173 
L 25.618342 -23.885649 
L 29.661821 -23.887233 
L 33.705299 -23.884857 
L 37.748777 -23.883273 
L 41.792255 -23.886441 
L 45.835734 -23.884857 
L 49.879212 -23.891193 
L 53.92269 -23.888025 
L 57.966168 -23.952969 
L 62.009647 -23.945445 
L 66.053125 -23.939505 
L 70.096603 -24.074937 
L 74.140082 -24.038901 
L 78.18356 -24.069789 
L 82.227038 -24.055137 
L 86.270516 -24.192945 
L 90.313995 -24.217101 
L 94.357473 -24.414705 
L 98.400951 -24.430149 
L 102.444429 -24.616269 
L 106.487908 -24.401637 
L 110.531386 -24.503805 
L 114.574864 -24.435693 
L 118.618342 -24.704181 
L 122.661821 -24.770709 
L 126.705299 -25.156809 
L 130.748777 -25.131069 
L 134.792255 -25.464105 
L 138.835734 -25.270065 
L 142.879212 -25.878717 
L 146.92269 -25.979301 
L 150.966168 -26.326593 
L 155.009647 -26.028405 
L 159.053125 -26.262837 
L 163.096603 -26.253729 
L 167.140082 -26.893665 
L 171.18356 -27.017217 
L 175.227038 -27.333225 
L 179.270516 -27.535185 
L 183.313995 -28.118097 
L 187.357473 -27.775161 
L 191.400951 -28.386981 
L 195.444429 -28.977021 
L 199.487908 -28.800009 
L 203.531386 -29.093049 
L 207.574864 -29.773773 
L 211.618342 -28.844757 
L 215.661821 -28.913265 
L 219.705299 -29.144529 
L 223.748777 -29.971773 
L 227.792255 -29.411433 
L 231.835734 -30.753081 
L 235.879212 -30.806541 
L 239.92269 -30.728529 
L 243.966168 -31.514985 
L 248.009647 -32.010381 
L 252.053125 -32.605965 
L 256.096603 -33.032061 
L 260.140082 -32.659425 
L 264.18356 -32.988501 
L 268.227038 -37.733769 
L 272.270516 -37.351629 
L 276.313995 -37.615761 
L 280.357473 -37.802673 
L 284.400951 -38.742381 
L 288.444429 -41.220945 
L 292.487908 -41.354793 
L 296.531386 -45.187677 
L 300.574864 -46.307565 
L 304.618342 -50.526153 
L 308.661821 -50.272713 
L 312.705299 -52.432497 
L 316.748777 -52.645149 
L 320.792255 -56.735037 
L 324.835734 -59.756121 
L 328.879212 -61.283097 
L 332.92269 -65.589201 
L 336.966168 -72.463365 
L 341.009647 -74.014497 
L 345.053125 -73.890549 
L 345.053125 -83.465829 
L 345.053125 -83.465829 
L 341.009647 -82.602549 
L 336.966168 -79.040529 
L 332.92269 -70.259625 
L 328.879212 -64.476441 
L 324.835734 -62.008965 
L 320.792255 -58.675833 
L 316.748777 -54.601389 
L 312.705299 -54.117873 
L 308.661821 -51.737121 
L 304.618342 -51.944625 
L 300.574864 -48.248361 
L 296.531386 -46.930473 
L 292.487908 -42.820389 
L 288.444429 -42.891669 
L 284.400951 -40.209561 
L 280.357473 -39.171645 
L 276.313995 -39.118581 
L 272.270516 -38.267577 
L 268.227038 -38.487357 
L 264.18356 -33.631605 
L 260.140082 -32.978601 
L 256.096603 -33.388065 
L 252.053125 -32.925537 
L 248.009647 -32.308173 
L 243.966168 -31.800501 
L 239.92269 -30.980781 
L 235.879212 -31.059981 
L 231.835734 -30.984345 
L 227.792255 -29.642697 
L 223.748777 -30.169773 
L 219.705299 -29.345697 
L 215.661821 -29.070477 
L 211.618342 -28.999197 
L 207.574864 -29.953161 
L 203.531386 -29.273625 
L 199.487908 -28.987713 
L 195.444429 -29.208285 
L 191.400951 -28.568349 
L 187.357473 -27.948609 
L 183.313995 -28.250757 
L 179.270516 -27.617553 
L 175.227038 -27.414801 
L 171.18356 -27.079389 
L 167.140082 -26.946729 
L 163.096603 -26.313921 
L 159.053125 -26.309565 
L 155.009647 -26.067213 
L 150.966168 -26.367381 
L 146.92269 -26.028405 
L 142.879212 -25.916733 
L 138.835734 -25.293033 
L 134.792255 -25.487469 
L 130.748777 -25.151661 
L 126.705299 -25.185321 
L 122.661821 -24.798033 
L 118.618342 -24.732297 
L 114.574864 -24.464601 
L 110.531386 -24.540633 
L 106.487908 -24.424209 
L 102.444429 -24.643593 
L 98.400951 -24.459453 
L 94.357473 -24.438465 
L 90.313995 -24.242841 
L 86.270516 -24.217101 
L 82.227038 -24.072957 
L 78.18356 -24.086817 
L 74.140082 -24.051969 
L 70.096603 -24.088005 
L 66.053125 -23.958513 
L 62.009647 -23.951781 
L 57.966168 -23.965245 
L 53.92269 -23.898321 
L 49.879212 -23.907429 
L 45.835734 -23.893965 
L 41.792255 -23.904261 
L 37.748777 -23.902677 
L 33.705299 -23.902677 
L 29.661821 -23.905845 
L 25.618342 -23.905449 
L 21.574864 -23.912973 
L 17.531386 -23.918517 
L 13.487908 -24.100281 
L 9.444429 -23.910597 
L 5.400951 -23.901489 
L 1.357473 -23.913369 
L -2.686005 -24.025041 
z
" id="mbedf75fd39" style="stroke:#008000;stroke-opacity:0.8;"/>
    </defs>
    <g clip-path="url(#p451fcd27f1)">
     <use style="fill:#008000;fill-opacity:0.8;stroke:#008000;stroke-opacity:0.8;" x="0" xlink:href="#mbedf75fd39" y="312.077344"/>
    </g>
   </g>
   <g id="matplotlib.axis_1">
    <g id="xtick_1">
     <g id="line2d_1">
      <defs>
       <path d="M 0 0 
L 0 3.5 
" id="m3ce06a97a5" style="stroke:#000000;stroke-width:0.8;"/>
      </defs>
      <g>
       <use style="stroke:#000000;stroke-width:0.8;" x="66.053125" xlink:href="#m3ce06a97a5" y="288.199219"/>
      </g>
     </g>
     <g id="text_1">
      <!-- 1950 -->
      <defs>
       <path d="M 12.40625 8.296875 
L 28.515625 8.296875 
L 28.515625 63.921875 
L 10.984375 60.40625 
L 10.984375 69.390625 
L 28.421875 72.90625 
L 38.28125 72.90625 
L 38.28125 8.296875 
L 54.390625 8.296875 
L 54.390625 0 
L 12.40625 0 
z
" id="DejaVuSans-31"/>
       <path d="M 10.984375 1.515625 
L 10.984375 10.5 
Q 14.703125 8.734375 18.5 7.8125 
Q 22.3125 6.890625 25.984375 6.890625 
Q 35.75 6.890625 40.890625 13.453125 
Q 46.046875 20.015625 46.78125 33.40625 
Q 43.953125 29.203125 39.59375 26.953125 
Q 35.25 24.703125 29.984375 24.703125 
Q 19.046875 24.703125 12.671875 31.3125 
Q 6.296875 37.9375 6.296875 49.421875 
Q 6.296875 60.640625 12.9375 67.421875 
Q 19.578125 74.21875 30.609375 74.21875 
Q 43.265625 74.21875 49.921875 64.515625 
Q 56.59375 54.828125 56.59375 36.375 
Q 56.59375 19.140625 48.40625 8.859375 
Q 40.234375 -1.421875 26.421875 -1.421875 
Q 22.703125 -1.421875 18.890625 -0.6875 
Q 15.09375 0.046875 10.984375 1.515625 
z
M 30.609375 32.421875 
Q 37.25 32.421875 41.125 36.953125 
Q 45.015625 41.5 45.015625 49.421875 
Q 45.015625 57.28125 41.125 61.84375 
Q 37.25 66.40625 30.609375 66.40625 
Q 23.96875 66.40625 20.09375 61.84375 
Q 16.21875 57.28125 16.21875 49.421875 
Q 16.21875 41.5 20.09375 36.953125 
Q 23.96875 32.421875 30.609375 32.421875 
z
" id="DejaVuSans-39"/>
       <path d="M 10.796875 72.90625 
L 49.515625 72.90625 
L 49.515625 64.59375 
L 19.828125 64.59375 
L 19.828125 46.734375 
Q 21.96875 47.46875 24.109375 47.828125 
Q 26.265625 48.1875 28.421875 48.1875 
Q 40.625 48.1875 47.75 41.5 
Q 54.890625 34.8125 54.890625 23.390625 
Q 54.890625 11.625 47.5625 5.09375 
Q 40.234375 -1.421875 26.90625 -1.421875 
Q 22.3125 -1.421875 17.546875 -0.640625 
Q 12.796875 0.140625 7.71875 1.703125 
L 7.71875 11.625 
Q 12.109375 9.234375 16.796875 8.0625 
Q 21.484375 6.890625 26.703125 6.890625 
Q 35.15625 6.890625 40.078125 11.328125 
Q 45.015625 15.765625 45.015625 23.390625 
Q 45.015625 31 40.078125 35.4375 
Q 35.15625 39.890625 26.703125 39.890625 
Q 22.75 39.890625 18.8125 39.015625 
Q 14.890625 38.140625 10.796875 36.28125 
z
" id="DejaVuSans-35"/>
       <path d="M 31.78125 66.40625 
Q 24.171875 66.40625 20.328125 58.90625 
Q 16.5 51.421875 16.5 36.375 
Q 16.5 21.390625 20.328125 13.890625 
Q 24.171875 6.390625 31.78125 6.390625 
Q 39.453125 6.390625 43.28125 13.890625 
Q 47.125 21.390625 47.125 36.375 
Q 47.125 51.421875 43.28125 58.90625 
Q 39.453125 66.40625 31.78125 66.40625 
z
M 31.78125 74.21875 
Q 44.046875 74.21875 50.515625 64.515625 
Q 56.984375 54.828125 56.984375 36.375 
Q 56.984375 17.96875 50.515625 8.265625 
Q 44.046875 -1.421875 31.78125 -1.421875 
Q 19.53125 -1.421875 13.0625 8.265625 
Q 6.59375 17.96875 6.59375 36.375 
Q 6.59375 54.828125 13.0625 64.515625 
Q 19.53125 74.21875 31.78125 74.21875 
z
" id="DejaVuSans-30"/>
      </defs>
      <g transform="translate(53.328125 302.797656)scale(0.1 -0.1)">
       <use xlink:href="#DejaVuSans-31"/>
       <use x="63.623047" xlink:href="#DejaVuSans-39"/>
       <use x="127.246094" xlink:href="#DejaVuSans-35"/>
       <use x="190.869141" xlink:href="#DejaVuSans-30"/>
      </g>
     </g>
    </g>
    <g id="xtick_2">
     <g id="line2d_2">
      <g>
       <use style="stroke:#000000;stroke-width:0.8;" x="106.487908" xlink:href="#m3ce06a97a5" y="288.199219"/>
      </g>
     </g>
     <g id="text_2">
      <!-- 1960 -->
      <defs>
       <path d="M 33.015625 40.375 
Q 26.375 40.375 22.484375 35.828125 
Q 18.609375 31.296875 18.609375 23.390625 
Q 18.609375 15.53125 22.484375 10.953125 
Q 26.375 6.390625 33.015625 6.390625 
Q 39.65625 6.390625 43.53125 10.953125 
Q 47.40625 15.53125 47.40625 23.390625 
Q 47.40625 31.296875 43.53125 35.828125 
Q 39.65625 40.375 33.015625 40.375 
z
M 52.59375 71.296875 
L 52.59375 62.3125 
Q 48.875 64.0625 45.09375 64.984375 
Q 41.3125 65.921875 37.59375 65.921875 
Q 27.828125 65.921875 22.671875 59.328125 
Q 17.53125 52.734375 16.796875 39.40625 
Q 19.671875 43.65625 24.015625 45.921875 
Q 28.375 48.1875 33.59375 48.1875 
Q 44.578125 48.1875 50.953125 41.515625 
Q 57.328125 34.859375 57.328125 23.390625 
Q 57.328125 12.15625 50.6875 5.359375 
Q 44.046875 -1.421875 33.015625 -1.421875 
Q 20.359375 -1.421875 13.671875 8.265625 
Q 6.984375 17.96875 6.984375 36.375 
Q 6.984375 53.65625 15.1875 63.9375 
Q 23.390625 74.21875 37.203125 74.21875 
Q 40.921875 74.21875 44.703125 73.484375 
Q 48.484375 72.75 52.59375 71.296875 
z
" id="DejaVuSans-36"/>
      </defs>
      <g transform="translate(93.762908 302.797656)scale(0.1 -0.1)">
       <use xlink:href="#DejaVuSans-31"/>
       <use x="63.623047" xlink:href="#DejaVuSans-39"/>
       <use x="127.246094" xlink:href="#DejaVuSans-36"/>
       <use x="190.869141" xlink:href="#DejaVuSans-30"/>
      </g>
     </g>
    </g>
    <g id="xtick_3">
     <g id="line2d_3">
      <g>
       <use style="stroke:#000000;stroke-width:0.8;" x="146.92269" xlink:href="#m3ce06a97a5" y="288.199219"/>
      </g>
     </g>
     <g id="text_3">
      <!-- 1970 -->
      <defs>
       <path d="M 8.203125 72.90625 
L 55.078125 72.90625 
L 55.078125 68.703125 
L 28.609375 0 
L 18.3125 0 
L 43.21875 64.59375 
L 8.203125 64.59375 
z
" id="DejaVuSans-37"/>
      </defs>
      <g transform="translate(134.19769 302.797656)scale(0.1 -0.1)">
       <use xlink:href="#DejaVuSans-31"/>
       <use x="63.623047" xlink:href="#DejaVuSans-39"/>
       <use x="127.246094" xlink:href="#DejaVuSans-37"/>
       <use x="190.869141" xlink:href="#DejaVuSans-30"/>
      </g>
     </g>
    </g>
    <g id="xtick_4">
     <g id="line2d_4">
      <g>
       <use style="stroke:#000000;stroke-width:0.8;" x="187.357473" xlink:href="#m3ce06a97a5" y="288.199219"/>
      </g>
     </g>
     <g id="text_4">
      <!-- 1980 -->
      <defs>
       <path d="M 31.78125 34.625 
Q 24.75 34.625 20.71875 30.859375 
Q 16.703125 27.09375 16.703125 20.515625 
Q 16.703125 13.921875 20.71875 10.15625 
Q 24.75 6.390625 31.78125 6.390625 
Q 38.8125 6.390625 42.859375 10.171875 
Q 46.921875 13.96875 46.921875 20.515625 
Q 46.921875 27.09375 42.890625 30.859375 
Q 38.875 34.625 31.78125 34.625 
z
M 21.921875 38.8125 
Q 15.578125 40.375 12.03125 44.71875 
Q 8.5 49.078125 8.5 55.328125 
Q 8.5 64.0625 14.71875 69.140625 
Q 20.953125 74.21875 31.78125 74.21875 
Q 42.671875 74.21875 48.875 69.140625 
Q 55.078125 64.0625 55.078125 55.328125 
Q 55.078125 49.078125 51.53125 44.71875 
Q 48 40.375 41.703125 38.8125 
Q 48.828125 37.15625 52.796875 32.3125 
Q 56.78125 27.484375 56.78125 20.515625 
Q 56.78125 9.90625 50.3125 4.234375 
Q 43.84375 -1.421875 31.78125 -1.421875 
Q 19.734375 -1.421875 13.25 4.234375 
Q 6.78125 9.90625 6.78125 20.515625 
Q 6.78125 27.484375 10.78125 32.3125 
Q 14.796875 37.15625 21.921875 38.8125 
z
M 18.3125 54.390625 
Q 18.3125 48.734375 21.84375 45.5625 
Q 25.390625 42.390625 31.78125 42.390625 
Q 38.140625 42.390625 41.71875 45.5625 
Q 45.3125 48.734375 45.3125 54.390625 
Q 45.3125 60.0625 41.71875 63.234375 
Q 38.140625 66.40625 31.78125 66.40625 
Q 25.390625 66.40625 21.84375 63.234375 
Q 18.3125 60.0625 18.3125 54.390625 
z
" id="DejaVuSans-38"/>
      </defs>
      <g transform="translate(174.632473 302.797656)scale(0.1 -0.1)">
       <use xlink:href="#DejaVuSans-31"/>
       <use x="63.623047" xlink:href="#DejaVuSans-39"/>
       <use x="127.246094" xlink:href="#DejaVuSans-38"/>
       <use x="190.869141" xlink:href="#DejaVuSans-30"/>
      </g>
     </g>
    </g>
    <g id="xtick_5">
     <g id="line2d_5">
      <g>
       <use style="stroke:#000000;stroke-width:0.8;" x="227.792255" xlink:href="#m3ce06a97a5" y="288.199219"/>
      </g>
     </g>
     <g id="text_5">
      <!-- 1990 -->
      <g transform="translate(215.067255 302.797656)scale(0.1 -0.1)">
       <use xlink:href="#DejaVuSans-31"/>
       <use x="63.623047" xlink:href="#DejaVuSans-39"/>
       <use x="127.246094" xlink:href="#DejaVuSans-39"/>
       <use x="190.869141" xlink:href="#DejaVuSans-30"/>
      </g>
     </g>
    </g>
    <g id="xtick_6">
     <g id="line2d_6">
      <g>
       <use style="stroke:#000000;stroke-width:0.8;" x="268.227038" xlink:href="#m3ce06a97a5" y="288.199219"/>
      </g>
     </g>
     <g id="text_6">
      <!-- 2000 -->
      <defs>
       <path d="M 19.1875 8.296875 
L 53.609375 8.296875 
L 53.609375 0 
L 7.328125 0 
L 7.328125 8.296875 
Q 12.9375 14.109375 22.625 23.890625 
Q 32.328125 33.6875 34.8125 36.53125 
Q 39.546875 41.84375 41.421875 45.53125 
Q 43.3125 49.21875 43.3125 52.78125 
Q 43.3125 58.59375 39.234375 62.25 
Q 35.15625 65.921875 28.609375 65.921875 
Q 23.96875 65.921875 18.8125 64.3125 
Q 13.671875 62.703125 7.8125 59.421875 
L 7.8125 69.390625 
Q 13.765625 71.78125 18.9375 73 
Q 24.125 74.21875 28.421875 74.21875 
Q 39.75 74.21875 46.484375 68.546875 
Q 53.21875 62.890625 53.21875 53.421875 
Q 53.21875 48.921875 51.53125 44.890625 
Q 49.859375 40.875 45.40625 35.40625 
Q 44.1875 33.984375 37.640625 27.21875 
Q 31.109375 20.453125 19.1875 8.296875 
z
" id="DejaVuSans-32"/>
      </defs>
      <g transform="translate(255.502038 302.797656)scale(0.1 -0.1)">
       <use xlink:href="#DejaVuSans-32"/>
       <use x="63.623047" xlink:href="#DejaVuSans-30"/>
       <use x="127.246094" xlink:href="#DejaVuSans-30"/>
       <use x="190.869141" xlink:href="#DejaVuSans-30"/>
      </g>
     </g>
    </g>
    <g id="xtick_7">
     <g id="line2d_7">
      <g>
       <use style="stroke:#000000;stroke-width:0.8;" x="308.661821" xlink:href="#m3ce06a97a5" y="288.199219"/>
      </g>
     </g>
     <g id="text_7">
      <!-- 2010 -->
      <g transform="translate(295.936821 302.797656)scale(0.1 -0.1)">
       <use xlink:href="#DejaVuSans-32"/>
       <use x="63.623047" xlink:href="#DejaVuSans-30"/>
       <use x="127.246094" xlink:href="#DejaVuSans-31"/>
       <use x="190.869141" xlink:href="#DejaVuSans-30"/>
      </g>
     </g>
    </g>
   </g>
   <g id="matplotlib.axis_2">
    <g id="ytick_1">
     <g id="line2d_8">
      <defs>
       <path d="M 0 0 
L -3.5 0 
" id="mf68c124eb7" style="stroke:#000000;stroke-width:0.8;"/>
      </defs>
      <g>
       <use style="stroke:#000000;stroke-width:0.8;" x="66.053125" xlink:href="#mf68c124eb7" y="288.199219"/>
      </g>
     </g>
     <g id="text_8">
      <!-- 0 -->
      <g transform="translate(52.690625 291.998438)scale(0.1 -0.1)">
       <use xlink:href="#DejaVuSans-30"/>
      </g>
     </g>
    </g>
    <g id="ytick_2">
     <g id="line2d_9">
      <g>
       <use style="stroke:#000000;stroke-width:0.8;" x="66.053125" xlink:href="#mf68c124eb7" y="248.599219"/>
      </g>
     </g>
     <g id="text_9">
      <!-- 100000 -->
      <g transform="translate(20.878125 252.398438)scale(0.1 -0.1)">
       <use xlink:href="#DejaVuSans-31"/>
       <use x="63.623047" xlink:href="#DejaVuSans-30"/>
       <use x="127.246094" xlink:href="#DejaVuSans-30"/>
       <use x="190.869141" xlink:href="#DejaVuSans-30"/>
       <use x="254.492188" xlink:href="#DejaVuSans-30"/>
       <use x="318.115234" xlink:href="#DejaVuSans-30"/>
      </g>
     </g>
    </g>
    <g id="ytick_3">
     <g id="line2d_10">
      <g>
       <use style="stroke:#000000;stroke-width:0.8;" x="66.053125" xlink:href="#mf68c124eb7" y="208.999219"/>
      </g>
     </g>
     <g id="text_10">
      <!-- 200000 -->
      <g transform="translate(20.878125 212.798438)scale(0.1 -0.1)">
       <use xlink:href="#DejaVuSans-32"/>
       <use x="63.623047" xlink:href="#DejaVuSans-30"/>
       <use x="127.246094" xlink:href="#DejaVuSans-30"/>
       <use x="190.869141" xlink:href="#DejaVuSans-30"/>
       <use x="254.492188" xlink:href="#DejaVuSans-30"/>
       <use x="318.115234" xlink:href="#DejaVuSans-30"/>
      </g>
     </g>
    </g>
    <g id="ytick_4">
     <g id="line2d_11">
      <g>
       <use style="stroke:#000000;stroke-width:0.8;" x="66.053125" xlink:href="#mf68c124eb7" y="169.399219"/>
      </g>
     </g>
     <g id="text_11">
      <!-- 300000 -->
      <defs>
       <path d="M 40.578125 39.3125 
Q 47.65625 37.796875 51.625 33 
Q 55.609375 28.21875 55.609375 21.1875 
Q 55.609375 10.40625 48.1875 4.484375 
Q 40.765625 -1.421875 27.09375 -1.421875 
Q 22.515625 -1.421875 17.65625 -0.515625 
Q 12.796875 0.390625 7.625 2.203125 
L 7.625 11.71875 
Q 11.71875 9.328125 16.59375 8.109375 
Q 21.484375 6.890625 26.8125 6.890625 
Q 36.078125 6.890625 40.9375 10.546875 
Q 45.796875 14.203125 45.796875 21.1875 
Q 45.796875 27.640625 41.28125 31.265625 
Q 36.765625 34.90625 28.71875 34.90625 
L 20.21875 34.90625 
L 20.21875 43.015625 
L 29.109375 43.015625 
Q 36.375 43.015625 40.234375 45.921875 
Q 44.09375 48.828125 44.09375 54.296875 
Q 44.09375 59.90625 40.109375 62.90625 
Q 36.140625 65.921875 28.71875 65.921875 
Q 24.65625 65.921875 20.015625 65.03125 
Q 15.375 64.15625 9.8125 62.3125 
L 9.8125 71.09375 
Q 15.4375 72.65625 20.34375 73.4375 
Q 25.25 74.21875 29.59375 74.21875 
Q 40.828125 74.21875 47.359375 69.109375 
Q 53.90625 64.015625 53.90625 55.328125 
Q 53.90625 49.265625 50.4375 45.09375 
Q 46.96875 40.921875 40.578125 39.3125 
z
" id="DejaVuSans-33"/>
      </defs>
      <g transform="translate(20.878125 173.198438)scale(0.1 -0.1)">
       <use xlink:href="#DejaVuSans-33"/>
       <use x="63.623047" xlink:href="#DejaVuSans-30"/>
       <use x="127.246094" xlink:href="#DejaVuSans-30"/>
       <use x="190.869141" xlink:href="#DejaVuSans-30"/>
       <use x="254.492188" xlink:href="#DejaVuSans-30"/>
       <use x="318.115234" xlink:href="#DejaVuSans-30"/>
      </g>
     </g>
    </g>
    <g id="ytick_5">
     <g id="line2d_12">
      <g>
       <use style="stroke:#000000;stroke-width:0.8;" x="66.053125" xlink:href="#mf68c124eb7" y="129.799219"/>
      </g>
     </g>
     <g id="text_12">
      <!-- 400000 -->
      <defs>
       <path d="M 37.796875 64.3125 
L 12.890625 25.390625 
L 37.796875 25.390625 
z
M 35.203125 72.90625 
L 47.609375 72.90625 
L 47.609375 25.390625 
L 58.015625 25.390625 
L 58.015625 17.1875 
L 47.609375 17.1875 
L 47.609375 0 
L 37.796875 0 
L 37.796875 17.1875 
L 4.890625 17.1875 
L 4.890625 26.703125 
z
" id="DejaVuSans-34"/>
      </defs>
      <g transform="translate(20.878125 133.598438)scale(0.1 -0.1)">
       <use xlink:href="#DejaVuSans-34"/>
       <use x="63.623047" xlink:href="#DejaVuSans-30"/>
       <use x="127.246094" xlink:href="#DejaVuSans-30"/>
       <use x="190.869141" xlink:href="#DejaVuSans-30"/>
       <use x="254.492188" xlink:href="#DejaVuSans-30"/>
       <use x="318.115234" xlink:href="#DejaVuSans-30"/>
      </g>
     </g>
    </g>
    <g id="ytick_6">
     <g id="line2d_13">
      <g>
       <use style="stroke:#000000;stroke-width:0.8;" x="66.053125" xlink:href="#mf68c124eb7" y="90.199219"/>
      </g>
     </g>
     <g id="text_13">
      <!-- 500000 -->
      <g transform="translate(20.878125 93.998438)scale(0.1 -0.1)">
       <use xlink:href="#DejaVuSans-35"/>
       <use x="63.623047" xlink:href="#DejaVuSans-30"/>
       <use x="127.246094" xlink:href="#DejaVuSans-30"/>
       <use x="190.869141" xlink:href="#DejaVuSans-30"/>
       <use x="254.492188" xlink:href="#DejaVuSans-30"/>
       <use x="318.115234" xlink:href="#DejaVuSans-30"/>
      </g>
     </g>
    </g>
    <g id="ytick_7">
     <g id="line2d_14">
      <g>
       <use style="stroke:#000000;stroke-width:0.8;" x="66.053125" xlink:href="#mf68c124eb7" y="50.599219"/>
      </g>
     </g>
     <g id="text_14">
      <!-- 600000 -->
      <g transform="translate(20.878125 54.398438)scale(0.1 -0.1)">
       <use xlink:href="#DejaVuSans-36"/>
       <use x="63.623047" xlink:href="#DejaVuSans-30"/>
       <use x="127.246094" xlink:href="#DejaVuSans-30"/>
       <use x="190.869141" xlink:href="#DejaVuSans-30"/>
       <use x="254.492188" xlink:href="#DejaVuSans-30"/>
       <use x="318.115234" xlink:href="#DejaVuSans-30"/>
      </g>
     </g>
    </g>
    <g id="ytick_8">
     <g id="line2d_15">
      <g>
       <use style="stroke:#000000;stroke-width:0.8;" x="66.053125" xlink:href="#mf68c124eb7" y="10.999219"/>
      </g>
     </g>
     <g id="text_15">
      <!-- 700000 -->
      <g transform="translate(20.878125 14.798438)scale(0.1 -0.1)">
       <use xlink:href="#DejaVuSans-37"/>
       <use x="63.623047" xlink:href="#DejaVuSans-30"/>
       <use x="127.246094" xlink:href="#DejaVuSans-30"/>
       <use x="190.869141" xlink:href="#DejaVuSans-30"/>
       <use x="254.492188" xlink:href="#DejaVuSans-30"/>
       <use x="318.115234" xlink:href="#DejaVuSans-30"/>
      </g>
     </g>
    </g>
    <g id="text_16">
     <!-- # records -->
     <defs>
      <path d="M 51.125 44 
L 36.921875 44 
L 32.8125 27.6875 
L 47.125 27.6875 
z
M 43.796875 71.78125 
L 38.71875 51.515625 
L 52.984375 51.515625 
L 58.109375 71.78125 
L 65.921875 71.78125 
L 60.890625 51.515625 
L 76.125 51.515625 
L 76.125 44 
L 58.984375 44 
L 54.984375 27.6875 
L 70.515625 27.6875 
L 70.515625 20.21875 
L 53.078125 20.21875 
L 48 0 
L 40.1875 0 
L 45.21875 20.21875 
L 30.90625 20.21875 
L 25.875 0 
L 18.015625 0 
L 23.09375 20.21875 
L 7.71875 20.21875 
L 7.71875 27.6875 
L 24.90625 27.6875 
L 29 44 
L 13.28125 44 
L 13.28125 51.515625 
L 30.90625 51.515625 
L 35.890625 71.78125 
z
" id="DejaVuSans-23"/>
      <path id="DejaVuSans-20"/>
      <path d="M 41.109375 46.296875 
Q 39.59375 47.171875 37.8125 47.578125 
Q 36.03125 48 33.890625 48 
Q 26.265625 48 22.1875 43.046875 
Q 18.109375 38.09375 18.109375 28.8125 
L 18.109375 0 
L 9.078125 0 
L 9.078125 54.6875 
L 18.109375 54.6875 
L 18.109375 46.1875 
Q 20.953125 51.171875 25.484375 53.578125 
Q 30.03125 56 36.53125 56 
Q 37.453125 56 38.578125 55.875 
Q 39.703125 55.765625 41.0625 55.515625 
z
" id="DejaVuSans-72"/>
      <path d="M 56.203125 29.59375 
L 56.203125 25.203125 
L 14.890625 25.203125 
Q 15.484375 15.921875 20.484375 11.0625 
Q 25.484375 6.203125 34.421875 6.203125 
Q 39.59375 6.203125 44.453125 7.46875 
Q 49.3125 8.734375 54.109375 11.28125 
L 54.109375 2.78125 
Q 49.265625 0.734375 44.1875 -0.34375 
Q 39.109375 -1.421875 33.890625 -1.421875 
Q 20.796875 -1.421875 13.15625 6.1875 
Q 5.515625 13.8125 5.515625 26.8125 
Q 5.515625 40.234375 12.765625 48.109375 
Q 20.015625 56 32.328125 56 
Q 43.359375 56 49.78125 48.890625 
Q 56.203125 41.796875 56.203125 29.59375 
z
M 47.21875 32.234375 
Q 47.125 39.59375 43.09375 43.984375 
Q 39.0625 48.390625 32.421875 48.390625 
Q 24.90625 48.390625 20.390625 44.140625 
Q 15.875 39.890625 15.1875 32.171875 
z
" id="DejaVuSans-65"/>
      <path d="M 48.78125 52.59375 
L 48.78125 44.1875 
Q 44.96875 46.296875 41.140625 47.34375 
Q 37.3125 48.390625 33.40625 48.390625 
Q 24.65625 48.390625 19.8125 42.84375 
Q 14.984375 37.3125 14.984375 27.296875 
Q 14.984375 17.28125 19.8125 11.734375 
Q 24.65625 6.203125 33.40625 6.203125 
Q 37.3125 6.203125 41.140625 7.25 
Q 44.96875 8.296875 48.78125 10.40625 
L 48.78125 2.09375 
Q 45.015625 0.34375 40.984375 -0.53125 
Q 36.96875 -1.421875 32.421875 -1.421875 
Q 20.0625 -1.421875 12.78125 6.34375 
Q 5.515625 14.109375 5.515625 27.296875 
Q 5.515625 40.671875 12.859375 48.328125 
Q 20.21875 56 33.015625 56 
Q 37.15625 56 41.109375 55.140625 
Q 45.0625 54.296875 48.78125 52.59375 
z
" id="DejaVuSans-63"/>
      <path d="M 30.609375 48.390625 
Q 23.390625 48.390625 19.1875 42.75 
Q 14.984375 37.109375 14.984375 27.296875 
Q 14.984375 17.484375 19.15625 11.84375 
Q 23.34375 6.203125 30.609375 6.203125 
Q 37.796875 6.203125 41.984375 11.859375 
Q 46.1875 17.53125 46.1875 27.296875 
Q 46.1875 37.015625 41.984375 42.703125 
Q 37.796875 48.390625 30.609375 48.390625 
z
M 30.609375 56 
Q 42.328125 56 49.015625 48.375 
Q 55.71875 40.765625 55.71875 27.296875 
Q 55.71875 13.875 49.015625 6.21875 
Q 42.328125 -1.421875 30.609375 -1.421875 
Q 18.84375 -1.421875 12.171875 6.21875 
Q 5.515625 13.875 5.515625 27.296875 
Q 5.515625 40.765625 12.171875 48.375 
Q 18.84375 56 30.609375 56 
z
" id="DejaVuSans-6f"/>
      <path d="M 45.40625 46.390625 
L 45.40625 75.984375 
L 54.390625 75.984375 
L 54.390625 0 
L 45.40625 0 
L 45.40625 8.203125 
Q 42.578125 3.328125 38.25 0.953125 
Q 33.9375 -1.421875 27.875 -1.421875 
Q 17.96875 -1.421875 11.734375 6.484375 
Q 5.515625 14.40625 5.515625 27.296875 
Q 5.515625 40.1875 11.734375 48.09375 
Q 17.96875 56 27.875 56 
Q 33.9375 56 38.25 53.625 
Q 42.578125 51.265625 45.40625 46.390625 
z
M 14.796875 27.296875 
Q 14.796875 17.390625 18.875 11.75 
Q 22.953125 6.109375 30.078125 6.109375 
Q 37.203125 6.109375 41.296875 11.75 
Q 45.40625 17.390625 45.40625 27.296875 
Q 45.40625 37.203125 41.296875 42.84375 
Q 37.203125 48.484375 30.078125 48.484375 
Q 22.953125 48.484375 18.875 42.84375 
Q 14.796875 37.203125 14.796875 27.296875 
z
" id="DejaVuSans-64"/>
      <path d="M 44.28125 53.078125 
L 44.28125 44.578125 
Q 40.484375 46.53125 36.375 47.5 
Q 32.28125 48.484375 27.875 48.484375 
Q 21.1875 48.484375 17.84375 46.4375 
Q 14.5 44.390625 14.5 40.28125 
Q 14.5 37.15625 16.890625 35.375 
Q 19.28125 33.59375 26.515625 31.984375 
L 29.59375 31.296875 
Q 39.15625 29.25 43.1875 25.515625 
Q 47.21875 21.78125 47.21875 15.09375 
Q 47.21875 7.46875 41.1875 3.015625 
Q 35.15625 -1.421875 24.609375 -1.421875 
Q 20.21875 -1.421875 15.453125 -0.5625 
Q 10.6875 0.296875 5.421875 2 
L 5.421875 11.28125 
Q 10.40625 8.6875 15.234375 7.390625 
Q 20.0625 6.109375 24.8125 6.109375 
Q 31.15625 6.109375 34.5625 8.28125 
Q 37.984375 10.453125 37.984375 14.40625 
Q 37.984375 18.0625 35.515625 20.015625 
Q 33.0625 21.96875 24.703125 23.78125 
L 21.578125 24.515625 
Q 13.234375 26.265625 9.515625 29.90625 
Q 5.8125 33.546875 5.8125 39.890625 
Q 5.8125 47.609375 11.28125 51.796875 
Q 16.75 56 26.8125 56 
Q 31.78125 56 36.171875 55.265625 
Q 40.578125 54.546875 44.28125 53.078125 
z
" id="DejaVuSans-73"/>
     </defs>
     <g transform="translate(14.798438 174.150781)rotate(-90)scale(0.1 -0.1)">
      <use xlink:href="#DejaVuSans-23"/>
      <use x="83.789062" xlink:href="#DejaVuSans-20"/>
      <use x="115.576172" xlink:href="#DejaVuSans-72"/>
      <use x="156.658203" xlink:href="#DejaVuSans-65"/>
      <use x="218.181641" xlink:href="#DejaVuSans-63"/>
      <use x="273.162109" xlink:href="#DejaVuSans-6f"/>
      <use x="334.34375" xlink:href="#DejaVuSans-72"/>
      <use x="375.441406" xlink:href="#DejaVuSans-64"/>
      <use x="438.917969" xlink:href="#DejaVuSans-73"/>
     </g>
    </g>
   </g>
   <g id="patch_3">
    <path d="M 66.053125 288.199219 
L 66.053125 10.999219 
" style="fill:none;stroke:#000000;stroke-linecap:square;stroke-linejoin:miter;stroke-width:0.8;"/>
   </g>
   <g id="patch_4">
    <path d="M 345.053125 288.199219 
L 345.053125 10.999219 
" style="fill:none;stroke:#000000;stroke-linecap:square;stroke-linejoin:miter;stroke-width:0.8;"/>
   </g>
   <g id="patch_5">
    <path d="M 66.053125 288.199219 
L 345.053125 288.199219 
" style="fill:none;stroke:#000000;stroke-linecap:square;stroke-linejoin:miter;stroke-width:0.8;"/>
   </g>
   <g id="patch_6">
    <path d="M 66.053125 10.999219 
L 345.053125 10.999219 
" style="fill:none;stroke:#000000;stroke-linecap:square;stroke-linejoin:miter;stroke-width:0.8;"/>
   </g>
   <g id="legend_1">
    <g id="patch_7">
     <path d="M 73.053125 63.033594 
L 240.2125 63.033594 
Q 242.2125 63.033594 242.2125 61.033594 
L 242.2125 17.999219 
Q 242.2125 15.999219 240.2125 15.999219 
L 73.053125 15.999219 
Q 71.053125 15.999219 71.053125 17.999219 
L 71.053125 61.033594 
Q 71.053125 63.033594 73.053125 63.033594 
z
" style="fill:#ffffff;opacity:0.8;stroke:#cccccc;stroke-linejoin:miter;"/>
    </g>
    <g id="patch_8">
     <path d="M 75.053125 27.597656 
L 95.053125 27.597656 
L 95.053125 20.597656 
L 75.053125 20.597656 
z
" style="fill:#0000ff;opacity:0.3;stroke:#0000ff;stroke-linejoin:miter;"/>
    </g>
    <g id="text_17">
     <!-- Energy NOT Social Science -->
     <defs>
      <path d="M 9.8125 72.90625 
L 55.90625 72.90625 
L 55.90625 64.59375 
L 19.671875 64.59375 
L 19.671875 43.015625 
L 54.390625 43.015625 
L 54.390625 34.71875 
L 19.671875 34.71875 
L 19.671875 8.296875 
L 56.78125 8.296875 
L 56.78125 0 
L 9.8125 0 
z
" id="DejaVuSans-45"/>
      <path d="M 54.890625 33.015625 
L 54.890625 0 
L 45.90625 0 
L 45.90625 32.71875 
Q 45.90625 40.484375 42.875 44.328125 
Q 39.84375 48.1875 33.796875 48.1875 
Q 26.515625 48.1875 22.3125 43.546875 
Q 18.109375 38.921875 18.109375 30.90625 
L 18.109375 0 
L 9.078125 0 
L 9.078125 54.6875 
L 18.109375 54.6875 
L 18.109375 46.1875 
Q 21.34375 51.125 25.703125 53.5625 
Q 30.078125 56 35.796875 56 
Q 45.21875 56 50.046875 50.171875 
Q 54.890625 44.34375 54.890625 33.015625 
z
" id="DejaVuSans-6e"/>
      <path d="M 45.40625 27.984375 
Q 45.40625 37.75 41.375 43.109375 
Q 37.359375 48.484375 30.078125 48.484375 
Q 22.859375 48.484375 18.828125 43.109375 
Q 14.796875 37.75 14.796875 27.984375 
Q 14.796875 18.265625 18.828125 12.890625 
Q 22.859375 7.515625 30.078125 7.515625 
Q 37.359375 7.515625 41.375 12.890625 
Q 45.40625 18.265625 45.40625 27.984375 
z
M 54.390625 6.78125 
Q 54.390625 -7.171875 48.1875 -13.984375 
Q 42 -20.796875 29.203125 -20.796875 
Q 24.46875 -20.796875 20.265625 -20.09375 
Q 16.0625 -19.390625 12.109375 -17.921875 
L 12.109375 -9.1875 
Q 16.0625 -11.328125 19.921875 -12.34375 
Q 23.78125 -13.375 27.78125 -13.375 
Q 36.625 -13.375 41.015625 -8.765625 
Q 45.40625 -4.15625 45.40625 5.171875 
L 45.40625 9.625 
Q 42.625 4.78125 38.28125 2.390625 
Q 33.9375 0 27.875 0 
Q 17.828125 0 11.671875 7.65625 
Q 5.515625 15.328125 5.515625 27.984375 
Q 5.515625 40.671875 11.671875 48.328125 
Q 17.828125 56 27.875 56 
Q 33.9375 56 38.28125 53.609375 
Q 42.625 51.21875 45.40625 46.390625 
L 45.40625 54.6875 
L 54.390625 54.6875 
z
" id="DejaVuSans-67"/>
      <path d="M 32.171875 -5.078125 
Q 28.375 -14.84375 24.75 -17.8125 
Q 21.140625 -20.796875 15.09375 -20.796875 
L 7.90625 -20.796875 
L 7.90625 -13.28125 
L 13.1875 -13.28125 
Q 16.890625 -13.28125 18.9375 -11.515625 
Q 21 -9.765625 23.484375 -3.21875 
L 25.09375 0.875 
L 2.984375 54.6875 
L 12.5 54.6875 
L 29.59375 11.921875 
L 46.6875 54.6875 
L 56.203125 54.6875 
z
" id="DejaVuSans-79"/>
      <path d="M 9.8125 72.90625 
L 23.09375 72.90625 
L 55.421875 11.921875 
L 55.421875 72.90625 
L 64.984375 72.90625 
L 64.984375 0 
L 51.703125 0 
L 19.390625 60.984375 
L 19.390625 0 
L 9.8125 0 
z
" id="DejaVuSans-4e"/>
      <path d="M 39.40625 66.21875 
Q 28.65625 66.21875 22.328125 58.203125 
Q 16.015625 50.203125 16.015625 36.375 
Q 16.015625 22.609375 22.328125 14.59375 
Q 28.65625 6.59375 39.40625 6.59375 
Q 50.140625 6.59375 56.421875 14.59375 
Q 62.703125 22.609375 62.703125 36.375 
Q 62.703125 50.203125 56.421875 58.203125 
Q 50.140625 66.21875 39.40625 66.21875 
z
M 39.40625 74.21875 
Q 54.734375 74.21875 63.90625 63.9375 
Q 73.09375 53.65625 73.09375 36.375 
Q 73.09375 19.140625 63.90625 8.859375 
Q 54.734375 -1.421875 39.40625 -1.421875 
Q 24.03125 -1.421875 14.8125 8.828125 
Q 5.609375 19.09375 5.609375 36.375 
Q 5.609375 53.65625 14.8125 63.9375 
Q 24.03125 74.21875 39.40625 74.21875 
z
" id="DejaVuSans-4f"/>
      <path d="M -0.296875 72.90625 
L 61.375 72.90625 
L 61.375 64.59375 
L 35.5 64.59375 
L 35.5 0 
L 25.59375 0 
L 25.59375 64.59375 
L -0.296875 64.59375 
z
" id="DejaVuSans-54"/>
      <path d="M 53.515625 70.515625 
L 53.515625 60.890625 
Q 47.90625 63.578125 42.921875 64.890625 
Q 37.9375 66.21875 33.296875 66.21875 
Q 25.25 66.21875 20.875 63.09375 
Q 16.5 59.96875 16.5 54.203125 
Q 16.5 49.359375 19.40625 46.890625 
Q 22.3125 44.4375 30.421875 42.921875 
L 36.375 41.703125 
Q 47.40625 39.59375 52.65625 34.296875 
Q 57.90625 29 57.90625 20.125 
Q 57.90625 9.515625 50.796875 4.046875 
Q 43.703125 -1.421875 29.984375 -1.421875 
Q 24.8125 -1.421875 18.96875 -0.25 
Q 13.140625 0.921875 6.890625 3.21875 
L 6.890625 13.375 
Q 12.890625 10.015625 18.65625 8.296875 
Q 24.421875 6.59375 29.984375 6.59375 
Q 38.421875 6.59375 43.015625 9.90625 
Q 47.609375 13.234375 47.609375 19.390625 
Q 47.609375 24.75 44.3125 27.78125 
Q 41.015625 30.8125 33.5 32.328125 
L 27.484375 33.5 
Q 16.453125 35.6875 11.515625 40.375 
Q 6.59375 45.0625 6.59375 53.421875 
Q 6.59375 63.09375 13.40625 68.65625 
Q 20.21875 74.21875 32.171875 74.21875 
Q 37.3125 74.21875 42.625 73.28125 
Q 47.953125 72.359375 53.515625 70.515625 
z
" id="DejaVuSans-53"/>
      <path d="M 9.421875 54.6875 
L 18.40625 54.6875 
L 18.40625 0 
L 9.421875 0 
z
M 9.421875 75.984375 
L 18.40625 75.984375 
L 18.40625 64.59375 
L 9.421875 64.59375 
z
" id="DejaVuSans-69"/>
      <path d="M 34.28125 27.484375 
Q 23.390625 27.484375 19.1875 25 
Q 14.984375 22.515625 14.984375 16.5 
Q 14.984375 11.71875 18.140625 8.90625 
Q 21.296875 6.109375 26.703125 6.109375 
Q 34.1875 6.109375 38.703125 11.40625 
Q 43.21875 16.703125 43.21875 25.484375 
L 43.21875 27.484375 
z
M 52.203125 31.203125 
L 52.203125 0 
L 43.21875 0 
L 43.21875 8.296875 
Q 40.140625 3.328125 35.546875 0.953125 
Q 30.953125 -1.421875 24.3125 -1.421875 
Q 15.921875 -1.421875 10.953125 3.296875 
Q 6 8.015625 6 15.921875 
Q 6 25.140625 12.171875 29.828125 
Q 18.359375 34.515625 30.609375 34.515625 
L 43.21875 34.515625 
L 43.21875 35.40625 
Q 43.21875 41.609375 39.140625 45 
Q 35.0625 48.390625 27.6875 48.390625 
Q 23 48.390625 18.546875 47.265625 
Q 14.109375 46.140625 10.015625 43.890625 
L 10.015625 52.203125 
Q 14.9375 54.109375 19.578125 55.046875 
Q 24.21875 56 28.609375 56 
Q 40.484375 56 46.34375 49.84375 
Q 52.203125 43.703125 52.203125 31.203125 
z
" id="DejaVuSans-61"/>
      <path d="M 9.421875 75.984375 
L 18.40625 75.984375 
L 18.40625 0 
L 9.421875 0 
z
" id="DejaVuSans-6c"/>
     </defs>
     <g transform="translate(103.053125 27.597656)scale(0.1 -0.1)">
      <use xlink:href="#DejaVuSans-45"/>
      <use x="63.183594" xlink:href="#DejaVuSans-6e"/>
      <use x="126.5625" xlink:href="#DejaVuSans-65"/>
      <use x="188.085938" xlink:href="#DejaVuSans-72"/>
      <use x="229.183594" xlink:href="#DejaVuSans-67"/>
      <use x="292.660156" xlink:href="#DejaVuSans-79"/>
      <use x="351.839844" xlink:href="#DejaVuSans-20"/>
      <use x="383.626953" xlink:href="#DejaVuSans-4e"/>
      <use x="458.431641" xlink:href="#DejaVuSans-4f"/>
      <use x="537.142578" xlink:href="#DejaVuSans-54"/>
      <use x="598.226562" xlink:href="#DejaVuSans-20"/>
      <use x="630.013672" xlink:href="#DejaVuSans-53"/>
      <use x="693.490234" xlink:href="#DejaVuSans-6f"/>
      <use x="754.671875" xlink:href="#DejaVuSans-63"/>
      <use x="809.652344" xlink:href="#DejaVuSans-69"/>
      <use x="837.435547" xlink:href="#DejaVuSans-61"/>
      <use x="898.714844" xlink:href="#DejaVuSans-6c"/>
      <use x="926.498047" xlink:href="#DejaVuSans-20"/>
      <use x="958.285156" xlink:href="#DejaVuSans-53"/>
      <use x="1021.761719" xlink:href="#DejaVuSans-63"/>
      <use x="1076.742188" xlink:href="#DejaVuSans-69"/>
      <use x="1104.525391" xlink:href="#DejaVuSans-65"/>
      <use x="1166.048828" xlink:href="#DejaVuSans-6e"/>
      <use x="1229.427734" xlink:href="#DejaVuSans-63"/>
      <use x="1284.408203" xlink:href="#DejaVuSans-65"/>
     </g>
    </g>
    <g id="patch_9">
     <path d="M 75.053125 42.275781 
L 95.053125 42.275781 
L 95.053125 35.275781 
L 75.053125 35.275781 
z
" style="fill:#bfbf00;opacity:0.5;stroke:#bfbf00;stroke-linejoin:miter;"/>
    </g>
    <g id="text_18">
     <!-- Social Science NOT Energy -->
     <g transform="translate(103.053125 42.275781)scale(0.1 -0.1)">
      <use xlink:href="#DejaVuSans-53"/>
      <use x="63.476562" xlink:href="#DejaVuSans-6f"/>
      <use x="124.658203" xlink:href="#DejaVuSans-63"/>
      <use x="179.638672" xlink:href="#DejaVuSans-69"/>
      <use x="207.421875" xlink:href="#DejaVuSans-61"/>
      <use x="268.701172" xlink:href="#DejaVuSans-6c"/>
      <use x="296.484375" xlink:href="#DejaVuSans-20"/>
      <use x="328.271484" xlink:href="#DejaVuSans-53"/>
      <use x="391.748047" xlink:href="#DejaVuSans-63"/>
      <use x="446.728516" xlink:href="#DejaVuSans-69"/>
      <use x="474.511719" xlink:href="#DejaVuSans-65"/>
      <use x="536.035156" xlink:href="#DejaVuSans-6e"/>
      <use x="599.414062" xlink:href="#DejaVuSans-63"/>
      <use x="654.394531" xlink:href="#DejaVuSans-65"/>
      <use x="715.917969" xlink:href="#DejaVuSans-20"/>
      <use x="747.705078" xlink:href="#DejaVuSans-4e"/>
      <use x="822.509766" xlink:href="#DejaVuSans-4f"/>
      <use x="901.220703" xlink:href="#DejaVuSans-54"/>
      <use x="962.304688" xlink:href="#DejaVuSans-20"/>
      <use x="994.091797" xlink:href="#DejaVuSans-45"/>
      <use x="1057.275391" xlink:href="#DejaVuSans-6e"/>
      <use x="1120.654297" xlink:href="#DejaVuSans-65"/>
      <use x="1182.177734" xlink:href="#DejaVuSans-72"/>
      <use x="1223.275391" xlink:href="#DejaVuSans-67"/>
      <use x="1286.751953" xlink:href="#DejaVuSans-79"/>
     </g>
    </g>
    <g id="patch_10">
     <path d="M 75.053125 56.953906 
L 95.053125 56.953906 
L 95.053125 49.953906 
L 75.053125 49.953906 
z
" style="fill:#008000;opacity:0.8;stroke:#008000;stroke-linejoin:miter;"/>
    </g>
    <g id="text_19">
     <!-- Energy AND Social Science -->
     <defs>
      <path d="M 34.1875 63.1875 
L 20.796875 26.90625 
L 47.609375 26.90625 
z
M 28.609375 72.90625 
L 39.796875 72.90625 
L 67.578125 0 
L 57.328125 0 
L 50.6875 18.703125 
L 17.828125 18.703125 
L 11.1875 0 
L 0.78125 0 
z
" id="DejaVuSans-41"/>
      <path d="M 19.671875 64.796875 
L 19.671875 8.109375 
L 31.59375 8.109375 
Q 46.6875 8.109375 53.6875 14.9375 
Q 60.6875 21.78125 60.6875 36.53125 
Q 60.6875 51.171875 53.6875 57.984375 
Q 46.6875 64.796875 31.59375 64.796875 
z
M 9.8125 72.90625 
L 30.078125 72.90625 
Q 51.265625 72.90625 61.171875 64.09375 
Q 71.09375 55.28125 71.09375 36.53125 
Q 71.09375 17.671875 61.125 8.828125 
Q 51.171875 0 30.078125 0 
L 9.8125 0 
z
" id="DejaVuSans-44"/>
     </defs>
     <g transform="translate(103.053125 56.953906)scale(0.1 -0.1)">
      <use xlink:href="#DejaVuSans-45"/>
      <use x="63.183594" xlink:href="#DejaVuSans-6e"/>
      <use x="126.5625" xlink:href="#DejaVuSans-65"/>
      <use x="188.085938" xlink:href="#DejaVuSans-72"/>
      <use x="229.183594" xlink:href="#DejaVuSans-67"/>
      <use x="292.660156" xlink:href="#DejaVuSans-79"/>
      <use x="351.839844" xlink:href="#DejaVuSans-20"/>
      <use x="383.626953" xlink:href="#DejaVuSans-41"/>
      <use x="452.035156" xlink:href="#DejaVuSans-4e"/>
      <use x="526.839844" xlink:href="#DejaVuSans-44"/>
      <use x="603.841797" xlink:href="#DejaVuSans-20"/>
      <use x="635.628906" xlink:href="#DejaVuSans-53"/>
      <use x="699.105469" xlink:href="#DejaVuSans-6f"/>
      <use x="760.287109" xlink:href="#DejaVuSans-63"/>
      <use x="815.267578" xlink:href="#DejaVuSans-69"/>
      <use x="843.050781" xlink:href="#DejaVuSans-61"/>
      <use x="904.330078" xlink:href="#DejaVuSans-6c"/>
      <use x="932.113281" xlink:href="#DejaVuSans-20"/>
      <use x="963.900391" xlink:href="#DejaVuSans-53"/>
      <use x="1027.376953" xlink:href="#DejaVuSans-63"/>
      <use x="1082.357422" xlink:href="#DejaVuSans-69"/>
      <use x="1110.140625" xlink:href="#DejaVuSans-65"/>
      <use x="1171.664062" xlink:href="#DejaVuSans-6e"/>
      <use x="1235.042969" xlink:href="#DejaVuSans-63"/>
      <use x="1290.023438" xlink:href="#DejaVuSans-65"/>
     </g>
    </g>
   </g>
  </g>
  <g id="axes_2">
   <g id="matplotlib.axis_3">
    <g id="ytick_9">
     <g id="line2d_16">
      <defs>
       <path d="M 0 0 
L 3.5 0 
" id="m819a4f42a9" style="stroke:#000000;stroke-width:0.8;"/>
      </defs>
      <g>
       <use style="stroke:#000000;stroke-width:0.8;" x="345.053125" xlink:href="#m819a4f42a9" y="288.199219"/>
      </g>
     </g>
     <g id="text_20">
      <!-- 0 -->
      <g style="fill:#dc143c;" transform="translate(352.053125 291.998438)scale(0.1 -0.1)">
       <use xlink:href="#DejaVuSans-30"/>
      </g>
     </g>
    </g>
    <g id="ytick_10">
     <g id="line2d_17">
      <g>
       <use style="stroke:#000000;stroke-width:0.8;" x="345.053125" xlink:href="#m819a4f42a9" y="232.759219"/>
      </g>
     </g>
     <g id="text_21">
      <!-- 5000 -->
      <g style="fill:#dc143c;" transform="translate(352.053125 236.558438)scale(0.1 -0.1)">
       <use xlink:href="#DejaVuSans-35"/>
       <use x="63.623047" xlink:href="#DejaVuSans-30"/>
       <use x="127.246094" xlink:href="#DejaVuSans-30"/>
       <use x="190.869141" xlink:href="#DejaVuSans-30"/>
      </g>
     </g>
    </g>
    <g id="ytick_11">
     <g id="line2d_18">
      <g>
       <use style="stroke:#000000;stroke-width:0.8;" x="345.053125" xlink:href="#m819a4f42a9" y="177.319219"/>
      </g>
     </g>
     <g id="text_22">
      <!-- 10000 -->
      <g style="fill:#dc143c;" transform="translate(352.053125 181.118438)scale(0.1 -0.1)">
       <use xlink:href="#DejaVuSans-31"/>
       <use x="63.623047" xlink:href="#DejaVuSans-30"/>
       <use x="127.246094" xlink:href="#DejaVuSans-30"/>
       <use x="190.869141" xlink:href="#DejaVuSans-30"/>
       <use x="254.492188" xlink:href="#DejaVuSans-30"/>
      </g>
     </g>
    </g>
    <g id="ytick_12">
     <g id="line2d_19">
      <g>
       <use style="stroke:#000000;stroke-width:0.8;" x="345.053125" xlink:href="#m819a4f42a9" y="121.879219"/>
      </g>
     </g>
     <g id="text_23">
      <!-- 15000 -->
      <g style="fill:#dc143c;" transform="translate(352.053125 125.678438)scale(0.1 -0.1)">
       <use xlink:href="#DejaVuSans-31"/>
       <use x="63.623047" xlink:href="#DejaVuSans-35"/>
       <use x="127.246094" xlink:href="#DejaVuSans-30"/>
       <use x="190.869141" xlink:href="#DejaVuSans-30"/>
       <use x="254.492188" xlink:href="#DejaVuSans-30"/>
      </g>
     </g>
    </g>
    <g id="ytick_13">
     <g id="line2d_20">
      <g>
       <use style="stroke:#000000;stroke-width:0.8;" x="345.053125" xlink:href="#m819a4f42a9" y="66.439219"/>
      </g>
     </g>
     <g id="text_24">
      <!-- 20000 -->
      <g style="fill:#dc143c;" transform="translate(352.053125 70.238438)scale(0.1 -0.1)">
       <use xlink:href="#DejaVuSans-32"/>
       <use x="63.623047" xlink:href="#DejaVuSans-30"/>
       <use x="127.246094" xlink:href="#DejaVuSans-30"/>
       <use x="190.869141" xlink:href="#DejaVuSans-30"/>
       <use x="254.492188" xlink:href="#DejaVuSans-30"/>
      </g>
     </g>
    </g>
    <g id="ytick_14">
     <g id="line2d_21">
      <g>
       <use style="stroke:#000000;stroke-width:0.8;" x="345.053125" xlink:href="#m819a4f42a9" y="10.999219"/>
      </g>
     </g>
     <g id="text_25">
      <!-- 25000 -->
      <g style="fill:#dc143c;" transform="translate(352.053125 14.798438)scale(0.1 -0.1)">
       <use xlink:href="#DejaVuSans-32"/>
       <use x="63.623047" xlink:href="#DejaVuSans-35"/>
       <use x="127.246094" xlink:href="#DejaVuSans-30"/>
       <use x="190.869141" xlink:href="#DejaVuSans-30"/>
       <use x="254.492188" xlink:href="#DejaVuSans-30"/>
      </g>
     </g>
    </g>
    <g id="text_26">
     <!-- # records in Energy AND Social Science -->
     <g style="fill:#dc143c;" transform="translate(395.464063 249.466406)rotate(-90)scale(0.1 -0.1)">
      <use xlink:href="#DejaVuSans-23"/>
      <use x="83.789062" xlink:href="#DejaVuSans-20"/>
      <use x="115.576172" xlink:href="#DejaVuSans-72"/>
      <use x="156.658203" xlink:href="#DejaVuSans-65"/>
      <use x="218.181641" xlink:href="#DejaVuSans-63"/>
      <use x="273.162109" xlink:href="#DejaVuSans-6f"/>
      <use x="334.34375" xlink:href="#DejaVuSans-72"/>
      <use x="375.441406" xlink:href="#DejaVuSans-64"/>
      <use x="438.917969" xlink:href="#DejaVuSans-73"/>
      <use x="491.017578" xlink:href="#DejaVuSans-20"/>
      <use x="522.804688" xlink:href="#DejaVuSans-69"/>
      <use x="550.587891" xlink:href="#DejaVuSans-6e"/>
      <use x="613.966797" xlink:href="#DejaVuSans-20"/>
      <use x="645.753906" xlink:href="#DejaVuSans-45"/>
      <use x="708.9375" xlink:href="#DejaVuSans-6e"/>
      <use x="772.316406" xlink:href="#DejaVuSans-65"/>
      <use x="833.839844" xlink:href="#DejaVuSans-72"/>
      <use x="874.9375" xlink:href="#DejaVuSans-67"/>
      <use x="938.414062" xlink:href="#DejaVuSans-79"/>
      <use x="997.59375" xlink:href="#DejaVuSans-20"/>
      <use x="1029.380859" xlink:href="#DejaVuSans-41"/>
      <use x="1097.789062" xlink:href="#DejaVuSans-4e"/>
      <use x="1172.59375" xlink:href="#DejaVuSans-44"/>
      <use x="1249.595703" xlink:href="#DejaVuSans-20"/>
      <use x="1281.382812" xlink:href="#DejaVuSans-53"/>
      <use x="1344.859375" xlink:href="#DejaVuSans-6f"/>
      <use x="1406.041016" xlink:href="#DejaVuSans-63"/>
      <use x="1461.021484" xlink:href="#DejaVuSans-69"/>
      <use x="1488.804688" xlink:href="#DejaVuSans-61"/>
      <use x="1550.083984" xlink:href="#DejaVuSans-6c"/>
      <use x="1577.867188" xlink:href="#DejaVuSans-20"/>
      <use x="1609.654297" xlink:href="#DejaVuSans-53"/>
      <use x="1673.130859" xlink:href="#DejaVuSans-63"/>
      <use x="1728.111328" xlink:href="#DejaVuSans-69"/>
      <use x="1755.894531" xlink:href="#DejaVuSans-65"/>
      <use x="1817.417969" xlink:href="#DejaVuSans-6e"/>
      <use x="1880.796875" xlink:href="#DejaVuSans-63"/>
      <use x="1935.777344" xlink:href="#DejaVuSans-65"/>
     </g>
    </g>
   </g>
   <g id="line2d_22">
    <path clip-path="url(#p451fcd27f1)" d="M -1 287.552392 
L 1.357473 287.500675 
L 13.487908 287.689171 
L 17.531386 287.467411 
L 21.574864 287.644819 
L 41.792255 287.700259 
L 45.835734 287.944195 
L 49.879212 287.744611 
L 53.92269 287.910931 
L 57.966168 287.855491 
L 62.009647 288.021811 
L 66.053125 287.666995 
L 70.096603 287.833315 
L 78.18356 287.722435 
L 82.227038 287.700259 
L 86.270516 287.522851 
L 102.444429 287.434147 
L 106.487908 287.567203 
L 110.531386 287.168035 
L 114.574864 287.389795 
L 126.705299 287.400883 
L 130.748777 287.622643 
L 138.835734 287.556115 
L 146.92269 286.824307 
L 150.966168 287.057155 
L 155.009647 287.112595 
L 159.053125 286.890835 
L 163.096603 286.513843 
L 167.140082 286.713427 
L 171.18356 286.458403 
L 175.227038 285.915091 
L 179.270516 285.892915 
L 183.313995 284.484739 
L 187.357473 283.342675 
L 191.400951 283.120915 
L 195.444429 281.723827 
L 199.487908 282.943507 
L 203.531386 283.143091 
L 207.574864 283.176355 
L 211.618342 283.874899 
L 215.661821 283.797283 
L 219.705299 282.566515 
L 223.748777 282.655219 
L 227.792255 281.723827 
L 231.835734 281.723827 
L 235.879212 281.102899 
L 239.92269 281.136163 
L 243.966168 280.204771 
L 248.009647 279.861043 
L 252.053125 279.251203 
L 256.096603 278.231107 
L 260.140082 279.262291 
L 264.18356 270.192307 
L 268.227038 267.098755 
L 272.270516 262.552675 
L 276.313995 246.120259 
L 280.357473 249.868003 
L 284.400951 247.118179 
L 288.444429 241.418947 
L 292.487908 247.162531 
L 296.531386 239.400931 
L 300.574864 233.856931 
L 304.618342 248.482003 
L 308.661821 247.195795 
L 312.705299 241.008691 
L 316.748777 233.424499 
L 320.792255 233.856931 
L 324.835734 225.119587 
L 328.879212 198.785587 
L 332.92269 157.427347 
L 336.966168 104.038627 
L 341.009647 47.733763 
L 345.053125 20.091379 
L 345.053125 20.091379 
" style="fill:none;stroke:#dc143c;stroke-linecap:square;stroke-width:1.5;"/>
    <defs>
     <path d="M 0 1.5 
C 0.397805 1.5 0.77937 1.341951 1.06066 1.06066 
C 1.341951 0.77937 1.5 0.397805 1.5 0 
C 1.5 -0.397805 1.341951 -0.77937 1.06066 -1.06066 
C 0.77937 -1.341951 0.397805 -1.5 0 -1.5 
C -0.397805 -1.5 -0.77937 -1.341951 -1.06066 -1.06066 
C -1.341951 -0.77937 -1.5 -0.397805 -1.5 0 
C -1.5 0.397805 -1.341951 0.77937 -1.06066 1.06066 
C -0.77937 1.341951 -0.397805 1.5 0 1.5 
z
" id="m797981dcc6" style="stroke:#dc143c;"/>
    </defs>
    <g clip-path="url(#p451fcd27f1)">
     <use style="fill:#dc143c;stroke:#dc143c;" x="-1" xlink:href="#m797981dcc6" y="287.552392"/>
     <use style="fill:#dc143c;stroke:#dc143c;" x="1.357473" xlink:href="#m797981dcc6" y="287.500675"/>
     <use style="fill:#dc143c;stroke:#dc143c;" x="5.400951" xlink:href="#m797981dcc6" y="287.556115"/>
     <use style="fill:#dc143c;stroke:#dc143c;" x="9.444429" xlink:href="#m797981dcc6" y="287.678083"/>
     <use style="fill:#dc143c;stroke:#dc143c;" x="13.487908" xlink:href="#m797981dcc6" y="287.689171"/>
     <use style="fill:#dc143c;stroke:#dc143c;" x="17.531386" xlink:href="#m797981dcc6" y="287.467411"/>
     <use style="fill:#dc143c;stroke:#dc143c;" x="21.574864" xlink:href="#m797981dcc6" y="287.644819"/>
     <use style="fill:#dc143c;stroke:#dc143c;" x="25.618342" xlink:href="#m797981dcc6" y="287.644819"/>
     <use style="fill:#dc143c;stroke:#dc143c;" x="29.661821" xlink:href="#m797981dcc6" y="287.678083"/>
     <use style="fill:#dc143c;stroke:#dc143c;" x="33.705299" xlink:href="#m797981dcc6" y="287.700259"/>
     <use style="fill:#dc143c;stroke:#dc143c;" x="37.748777" xlink:href="#m797981dcc6" y="287.655907"/>
     <use style="fill:#dc143c;stroke:#dc143c;" x="41.792255" xlink:href="#m797981dcc6" y="287.700259"/>
     <use style="fill:#dc143c;stroke:#dc143c;" x="45.835734" xlink:href="#m797981dcc6" y="287.944195"/>
     <use style="fill:#dc143c;stroke:#dc143c;" x="49.879212" xlink:href="#m797981dcc6" y="287.744611"/>
     <use style="fill:#dc143c;stroke:#dc143c;" x="53.92269" xlink:href="#m797981dcc6" y="287.910931"/>
     <use style="fill:#dc143c;stroke:#dc143c;" x="57.966168" xlink:href="#m797981dcc6" y="287.855491"/>
     <use style="fill:#dc143c;stroke:#dc143c;" x="62.009647" xlink:href="#m797981dcc6" y="288.021811"/>
     <use style="fill:#dc143c;stroke:#dc143c;" x="66.053125" xlink:href="#m797981dcc6" y="287.666995"/>
     <use style="fill:#dc143c;stroke:#dc143c;" x="70.096603" xlink:href="#m797981dcc6" y="287.833315"/>
     <use style="fill:#dc143c;stroke:#dc143c;" x="74.140082" xlink:href="#m797981dcc6" y="287.833315"/>
     <use style="fill:#dc143c;stroke:#dc143c;" x="78.18356" xlink:href="#m797981dcc6" y="287.722435"/>
     <use style="fill:#dc143c;stroke:#dc143c;" x="82.227038" xlink:href="#m797981dcc6" y="287.700259"/>
     <use style="fill:#dc143c;stroke:#dc143c;" x="86.270516" xlink:href="#m797981dcc6" y="287.522851"/>
     <use style="fill:#dc143c;stroke:#dc143c;" x="90.313995" xlink:href="#m797981dcc6" y="287.478499"/>
     <use style="fill:#dc143c;stroke:#dc143c;" x="94.357473" xlink:href="#m797981dcc6" y="287.533939"/>
     <use style="fill:#dc143c;stroke:#dc143c;" x="98.400951" xlink:href="#m797981dcc6" y="287.378707"/>
     <use style="fill:#dc143c;stroke:#dc143c;" x="102.444429" xlink:href="#m797981dcc6" y="287.434147"/>
     <use style="fill:#dc143c;stroke:#dc143c;" x="106.487908" xlink:href="#m797981dcc6" y="287.567203"/>
     <use style="fill:#dc143c;stroke:#dc143c;" x="110.531386" xlink:href="#m797981dcc6" y="287.168035"/>
     <use style="fill:#dc143c;stroke:#dc143c;" x="114.574864" xlink:href="#m797981dcc6" y="287.389795"/>
     <use style="fill:#dc143c;stroke:#dc143c;" x="118.618342" xlink:href="#m797981dcc6" y="287.411971"/>
     <use style="fill:#dc143c;stroke:#dc143c;" x="122.661821" xlink:href="#m797981dcc6" y="287.434147"/>
     <use style="fill:#dc143c;stroke:#dc143c;" x="126.705299" xlink:href="#m797981dcc6" y="287.400883"/>
     <use style="fill:#dc143c;stroke:#dc143c;" x="130.748777" xlink:href="#m797981dcc6" y="287.622643"/>
     <use style="fill:#dc143c;stroke:#dc143c;" x="134.792255" xlink:href="#m797981dcc6" y="287.545027"/>
     <use style="fill:#dc143c;stroke:#dc143c;" x="138.835734" xlink:href="#m797981dcc6" y="287.556115"/>
     <use style="fill:#dc143c;stroke:#dc143c;" x="142.879212" xlink:href="#m797981dcc6" y="287.134771"/>
     <use style="fill:#dc143c;stroke:#dc143c;" x="146.92269" xlink:href="#m797981dcc6" y="286.824307"/>
     <use style="fill:#dc143c;stroke:#dc143c;" x="150.966168" xlink:href="#m797981dcc6" y="287.057155"/>
     <use style="fill:#dc143c;stroke:#dc143c;" x="155.009647" xlink:href="#m797981dcc6" y="287.112595"/>
     <use style="fill:#dc143c;stroke:#dc143c;" x="159.053125" xlink:href="#m797981dcc6" y="286.890835"/>
     <use style="fill:#dc143c;stroke:#dc143c;" x="163.096603" xlink:href="#m797981dcc6" y="286.513843"/>
     <use style="fill:#dc143c;stroke:#dc143c;" x="167.140082" xlink:href="#m797981dcc6" y="286.713427"/>
     <use style="fill:#dc143c;stroke:#dc143c;" x="171.18356" xlink:href="#m797981dcc6" y="286.458403"/>
     <use style="fill:#dc143c;stroke:#dc143c;" x="175.227038" xlink:href="#m797981dcc6" y="285.915091"/>
     <use style="fill:#dc143c;stroke:#dc143c;" x="179.270516" xlink:href="#m797981dcc6" y="285.892915"/>
     <use style="fill:#dc143c;stroke:#dc143c;" x="183.313995" xlink:href="#m797981dcc6" y="284.484739"/>
     <use style="fill:#dc143c;stroke:#dc143c;" x="187.357473" xlink:href="#m797981dcc6" y="283.342675"/>
     <use style="fill:#dc143c;stroke:#dc143c;" x="191.400951" xlink:href="#m797981dcc6" y="283.120915"/>
     <use style="fill:#dc143c;stroke:#dc143c;" x="195.444429" xlink:href="#m797981dcc6" y="281.723827"/>
     <use style="fill:#dc143c;stroke:#dc143c;" x="199.487908" xlink:href="#m797981dcc6" y="282.943507"/>
     <use style="fill:#dc143c;stroke:#dc143c;" x="203.531386" xlink:href="#m797981dcc6" y="283.143091"/>
     <use style="fill:#dc143c;stroke:#dc143c;" x="207.574864" xlink:href="#m797981dcc6" y="283.176355"/>
     <use style="fill:#dc143c;stroke:#dc143c;" x="211.618342" xlink:href="#m797981dcc6" y="283.874899"/>
     <use style="fill:#dc143c;stroke:#dc143c;" x="215.661821" xlink:href="#m797981dcc6" y="283.797283"/>
     <use style="fill:#dc143c;stroke:#dc143c;" x="219.705299" xlink:href="#m797981dcc6" y="282.566515"/>
     <use style="fill:#dc143c;stroke:#dc143c;" x="223.748777" xlink:href="#m797981dcc6" y="282.655219"/>
     <use style="fill:#dc143c;stroke:#dc143c;" x="227.792255" xlink:href="#m797981dcc6" y="281.723827"/>
     <use style="fill:#dc143c;stroke:#dc143c;" x="231.835734" xlink:href="#m797981dcc6" y="281.723827"/>
     <use style="fill:#dc143c;stroke:#dc143c;" x="235.879212" xlink:href="#m797981dcc6" y="281.102899"/>
     <use style="fill:#dc143c;stroke:#dc143c;" x="239.92269" xlink:href="#m797981dcc6" y="281.136163"/>
     <use style="fill:#dc143c;stroke:#dc143c;" x="243.966168" xlink:href="#m797981dcc6" y="280.204771"/>
     <use style="fill:#dc143c;stroke:#dc143c;" x="248.009647" xlink:href="#m797981dcc6" y="279.861043"/>
     <use style="fill:#dc143c;stroke:#dc143c;" x="252.053125" xlink:href="#m797981dcc6" y="279.251203"/>
     <use style="fill:#dc143c;stroke:#dc143c;" x="256.096603" xlink:href="#m797981dcc6" y="278.231107"/>
     <use style="fill:#dc143c;stroke:#dc143c;" x="260.140082" xlink:href="#m797981dcc6" y="279.262291"/>
     <use style="fill:#dc143c;stroke:#dc143c;" x="264.18356" xlink:href="#m797981dcc6" y="270.192307"/>
     <use style="fill:#dc143c;stroke:#dc143c;" x="268.227038" xlink:href="#m797981dcc6" y="267.098755"/>
     <use style="fill:#dc143c;stroke:#dc143c;" x="272.270516" xlink:href="#m797981dcc6" y="262.552675"/>
     <use style="fill:#dc143c;stroke:#dc143c;" x="276.313995" xlink:href="#m797981dcc6" y="246.120259"/>
     <use style="fill:#dc143c;stroke:#dc143c;" x="280.357473" xlink:href="#m797981dcc6" y="249.868003"/>
     <use style="fill:#dc143c;stroke:#dc143c;" x="284.400951" xlink:href="#m797981dcc6" y="247.118179"/>
     <use style="fill:#dc143c;stroke:#dc143c;" x="288.444429" xlink:href="#m797981dcc6" y="241.418947"/>
     <use style="fill:#dc143c;stroke:#dc143c;" x="292.487908" xlink:href="#m797981dcc6" y="247.162531"/>
     <use style="fill:#dc143c;stroke:#dc143c;" x="296.531386" xlink:href="#m797981dcc6" y="239.400931"/>
     <use style="fill:#dc143c;stroke:#dc143c;" x="300.574864" xlink:href="#m797981dcc6" y="233.856931"/>
     <use style="fill:#dc143c;stroke:#dc143c;" x="304.618342" xlink:href="#m797981dcc6" y="248.482003"/>
     <use style="fill:#dc143c;stroke:#dc143c;" x="308.661821" xlink:href="#m797981dcc6" y="247.195795"/>
     <use style="fill:#dc143c;stroke:#dc143c;" x="312.705299" xlink:href="#m797981dcc6" y="241.008691"/>
     <use style="fill:#dc143c;stroke:#dc143c;" x="316.748777" xlink:href="#m797981dcc6" y="233.424499"/>
     <use style="fill:#dc143c;stroke:#dc143c;" x="320.792255" xlink:href="#m797981dcc6" y="233.856931"/>
     <use style="fill:#dc143c;stroke:#dc143c;" x="324.835734" xlink:href="#m797981dcc6" y="225.119587"/>
     <use style="fill:#dc143c;stroke:#dc143c;" x="328.879212" xlink:href="#m797981dcc6" y="198.785587"/>
     <use style="fill:#dc143c;stroke:#dc143c;" x="332.92269" xlink:href="#m797981dcc6" y="157.427347"/>
     <use style="fill:#dc143c;stroke:#dc143c;" x="336.966168" xlink:href="#m797981dcc6" y="104.038627"/>
     <use style="fill:#dc143c;stroke:#dc143c;" x="341.009647" xlink:href="#m797981dcc6" y="47.733763"/>
     <use style="fill:#dc143c;stroke:#dc143c;" x="345.053125" xlink:href="#m797981dcc6" y="20.091379"/>
    </g>
   </g>
   <g id="patch_11">
    <path d="M 66.053125 288.199219 
L 66.053125 10.999219 
" style="fill:none;stroke:#000000;stroke-linecap:square;stroke-linejoin:miter;stroke-width:0.8;"/>
   </g>
   <g id="patch_12">
    <path d="M 345.053125 288.199219 
L 345.053125 10.999219 
" style="fill:none;stroke:#000000;stroke-linecap:square;stroke-linejoin:miter;stroke-width:0.8;"/>
   </g>
   <g id="patch_13">
    <path d="M 66.053125 288.199219 
L 345.053125 288.199219 
" style="fill:none;stroke:#000000;stroke-linecap:square;stroke-linejoin:miter;stroke-width:0.8;"/>
   </g>
   <g id="patch_14">
    <path d="M 66.053125 10.999219 
L 345.053125 10.999219 
" style="fill:none;stroke:#000000;stroke-linecap:square;stroke-linejoin:miter;stroke-width:0.8;"/>
   </g>
  </g>
 </g>
 <defs>
  <clipPath id="p451fcd27f1">
   <rect height="277.2" width="279" x="66.053125" y="10.999219"/>
  </clipPath>
 </defs>
</svg>
